<svg xmlns="http://www.w3.org/2000/svg" data-name="Layer 1" stroke="rgb(115, 95, 26)" viewBox="0 0 53 53" id="aim"><path d="M21.45 50.5a18.92 18.92 0 0 0 14.07-31.61L37 17.45h8.1a1 1 0 0 0 0-2H39L41.4 13h8.1a1 1 0 0 0 0-2h-6.1l5.05-5a1 1 0 0 0 0-1.42 1 1 0 0 0-1.41 0L42 9.6V3.5a1 1 0 0 0-2 0v8.1L37.55 14V7.93a1 1 0 0 0-2 0V16l-1.44 1.45a18.94 18.94 0 1 0-12.66 33Zm0-35.91a16.86 16.86 0 0 1 11.24 4.3l-2.41 2.41a13.6 13.6 0 1 0 1.42 1.42l2.41-2.41a16.93 16.93 0 1 1-12.66-5.72Zm5.54 17A5.53 5.53 0 1 1 24.6 27l-3.85 3.85a1 1 0 0 0 .7 1.71 1 1 0 0 0 .71-.3L26 28.4a5.52 5.52 0 0 1 1 3.15Zm-1-6A7.55 7.55 0 1 0 27.44 27l2.85-2.85a11.57 11.57 0 1 1-1.42-1.42Z"></path></svg>